<svg width="19" height="17" viewBox="0 0 19 17" fill="none" xmlns="http://www.w3.org/2000/svg">
<path d="M3.37256 7.80585V11.3263C3.37256 12.6154 3.37256 12.6154 4.73423 13.4371L8.47881 15.3709C9.04089 15.6613 9.95923 15.6613 10.5213 15.3709L14.2659 13.4371C15.6276 12.6154 15.6276 12.6154 15.6276 11.3263V7.80585C15.6276 6.51669 15.6276 6.51669 14.2659 5.69502L10.5213 3.76127C9.95923 3.47085 9.04089 3.47085 8.47881 3.76127L4.73423 5.69502C3.37256 6.51669 3.37256 6.51669 3.37256 7.80585Z" stroke="#292D32" stroke-width="1.5" stroke-linecap="round" stroke-linejoin="round"/>
<path d="M13.8543 5.40454V3.54163C13.8543 2.12496 13.0627 1.41663 11.4793 1.41663H7.521C5.93766 1.41663 5.146 2.12496 5.146 3.54163V5.35496" stroke="#292D32" stroke-width="1.5" stroke-linecap="round" stroke-linejoin="round"/>
<path d="M9.99866 7.78456L10.4499 8.41497C10.5212 8.51414 10.6795 8.61331 10.7982 8.64164L11.6057 8.82581C12.1045 8.93914 12.2391 9.32164 11.9145 9.67581L11.3841 10.2496C11.3049 10.3416 11.2416 10.5046 11.2495 10.6179L11.297 11.3616C11.3287 11.8221 10.9645 12.0558 10.4895 11.8858L9.71366 11.6096C9.59491 11.5671 9.39699 11.5671 9.27824 11.6096L8.50241 11.8858C8.02741 12.0558 7.66324 11.815 7.69491 11.3616L7.74241 10.6179C7.75032 10.5046 7.68699 10.3346 7.60782 10.2496L7.07741 9.67581C6.75282 9.32164 6.88741 8.93914 7.38616 8.82581L8.19366 8.64164C8.32032 8.61331 8.47866 8.50706 8.54199 8.41497L8.99324 7.78456C9.27824 7.40206 9.72157 7.40206 9.99866 7.78456Z" stroke="#292D32" stroke-width="1.5" stroke-linecap="round" stroke-linejoin="round"/>
</svg>
