<svg width="15" height="15" viewBox="0 0 15 15" fill="none" xmlns="http://www.w3.org/2000/svg">
<path d="M8.69304 12.9919C8.69304 12.9917 8.69297 12.9914 8.69284 12.9911L8.54223 12.7208C8.08742 11.9045 6.91316 11.9045 6.45835 12.7208L6.30754 12.9915C6.1998 13.1847 6.02248 13.3257 5.81454 13.3835C5.60659 13.4413 5.38502 13.4111 5.19848 13.2997L3.79042 12.4576C3.60381 12.3459 3.46764 12.162 3.41187 11.9462C3.35611 11.7305 3.3853 11.5006 3.49304 11.3072L3.52473 11.2503C4.04528 10.3161 3.3698 9.16646 2.30029 9.16646V9.16646C2.0848 9.16646 1.87814 9.07773 1.72577 8.9198C1.5734 8.76186 1.48779 8.54766 1.48779 8.3243V6.64C1.48779 6.41665 1.5734 6.20245 1.72577 6.04451C1.87814 5.88658 2.0848 5.79785 2.30029 5.79785V5.79785C3.3698 5.79785 4.04528 4.64825 3.52473 3.71397L3.49304 3.6571C3.43957 3.56129 3.40484 3.45549 3.39085 3.34576C3.37685 3.23603 3.38387 3.12452 3.41148 3.01759C3.4391 2.91067 3.48679 2.81045 3.55181 2.72264C3.61683 2.63484 3.69791 2.56118 3.79042 2.50588L5.19767 1.66373C5.38428 1.55206 5.60605 1.52179 5.81419 1.5796C6.02233 1.6374 6.1998 1.77854 6.30754 1.97196V1.97196C6.82817 2.90674 8.17296 2.90659 8.69386 1.97196V1.97196C8.8016 1.77876 8.97892 1.63779 9.18686 1.58C9.3948 1.52221 9.61638 1.55232 9.80292 1.66373L11.211 2.50588C11.3974 2.61756 11.5334 2.80134 11.5891 3.01688C11.6449 3.23241 11.6158 3.46207 11.5084 3.65542L11.4758 3.71392C10.9552 4.64825 11.6308 5.79785 12.7003 5.79785V5.79785C12.9158 5.79785 13.1224 5.88658 13.2748 6.04451C13.4272 6.20245 13.5128 6.41665 13.5128 6.64V8.3243C13.5128 8.54766 13.4272 8.76186 13.2748 8.9198C13.1224 9.07773 12.9158 9.16646 12.7003 9.16646V9.16646C11.6307 9.16646 10.9551 10.3161 11.4755 11.2505L11.5075 11.308C11.6153 11.5015 11.6445 11.7313 11.5887 11.9471C11.5329 12.1628 11.3968 12.3467 11.2102 12.4584L9.80292 13.3006C9.6163 13.4122 9.39453 13.4425 9.18639 13.3847C8.97839 13.3269 8.80102 13.1859 8.69325 12.9927C8.69311 12.9925 8.69304 12.9922 8.69304 12.9919V12.9919Z" stroke="#313131" stroke-width="1.2" stroke-linejoin="round"/>
<circle cx="7.5" cy="7.5" r="1.8375" stroke="#313131" stroke-width="1.2"/>
</svg>
