<svg width="15" height="15" viewBox="0 0 15 15" fill="none" xmlns="http://www.w3.org/2000/svg">
<path d="M10 1.25H5C2.5 1.25 1.25 2.5 1.25 5V13.125C1.25 13.4688 1.53125 13.75 1.875 13.75H10C12.5 13.75 13.75 12.5 13.75 10V5C13.75 2.5 12.5 1.25 10 1.25Z" stroke="#292D32" stroke-width="1.5" stroke-linecap="round" stroke-linejoin="round"/>
<path d="M8.06899 4.89997L4.82524 8.14372C4.70024 8.26872 4.58149 8.51247 4.55649 8.68747L4.38149 9.92497C4.31899 10.375 4.63149 10.6875 5.08149 10.625L6.31898 10.45C6.49398 10.425 6.73774 10.3062 6.86274 10.1812L10.1065 6.93747C10.6627 6.38122 10.9315 5.73122 10.1065 4.90622C9.28149 4.07497 8.63149 4.33747 8.06899 4.89997Z" stroke="#292D32" stroke-width="1.5" stroke-miterlimit="10" stroke-linecap="round" stroke-linejoin="round"/>
<path d="M7.60645 5.36243C7.88145 6.34368 8.6502 7.11868 9.6377 7.39368" stroke="#292D32" stroke-width="1.5" stroke-miterlimit="10" stroke-linecap="round" stroke-linejoin="round"/>
</svg>
